<?xml version="1.0" encoding="UTF-8"?>
<svg width="115px" height="21px" viewBox="0 0 115 21" version="1.1" xmlns="http://www.w3.org/2000/svg" xmlns:xlink="http://www.w3.org/1999/xlink">
    <title>mdpi/Appcent-Light</title>
    <g id="Appcent-Light" stroke="none" stroke-width="1" fill="none" fill-rule="evenodd">
        <g id="logo-dark2-01" fill-rule="nonzero">
            <path d="M30.0870055,13.4000916 L29.0860348,16.5805952 L25.2113095,16.5805952 L30.7489377,0.726510989 L35.1887271,0.726510989 L40.22587,16.5805952 L36.1896978,16.5805952 L35.3340293,13.4000916 L30.0870055,13.4000916 Z M32.8961813,4.27834249 L30.9749634,10.4779029 L34.5590842,10.4779029 L32.8961813,4.27834249 Z" id="Shape" fill="#FFFFFF"></path>
            <path d="M45.4379136,5.10172161 L45.3410455,6.45787546 C46.3097268,5.24702381 47.1492506,4.79497253 48.5699832,4.79497253 C51.58904,4.79497253 53.6394154,7.21667582 53.6394154,10.8007967 C53.6394154,14.465641 51.6213294,16.8873443 48.6022726,16.8873443 C47.3429869,16.8873443 46.4711737,16.5321612 45.5186371,15.6442033 L45.5186371,20.2131502 L42.1443971,20.2131502 L42.1443971,5.10172161 L45.4379136,5.10172161 L45.4379136,5.10172161 Z M45.3894795,10.8330861 C45.3894795,12.8834615 46.3420162,14.1588919 47.8596169,14.1588919 C49.3287836,14.1588919 50.3136096,12.8673168 50.3136096,10.8815201 C50.3136096,8.815 49.3933623,7.52342491 47.8434722,7.52342491 C46.3420162,7.52342491 45.3894795,8.815 45.3894795,10.8330861 Z" id="Shape" fill="#FFFFFF"></path>
            <path d="M58.8514591,5.10172161 L58.754591,6.45787546 C59.7232723,5.24702381 60.5627961,4.79497253 61.9835287,4.79497253 C65.0025855,4.79497253 67.0529609,7.21667582 67.0529609,10.8007967 C67.0529609,14.465641 65.0348748,16.8873443 62.0158181,16.8873443 C60.7565324,16.8873443 59.8847192,16.5321612 58.9321825,15.6442033 L58.9321825,20.2131502 L55.5579426,20.2131502 L55.5579426,5.10172161 L58.8514591,5.10172161 L58.8514591,5.10172161 Z M58.803025,10.8330861 C58.803025,12.8834615 59.7555617,14.1588919 61.2731624,14.1588919 C62.7423291,14.1588919 63.7271551,12.8673168 63.7271551,10.8815201 C63.7271551,8.815 62.8069078,7.52342491 61.2570177,7.52342491 C59.7555617,7.52342491 58.803025,8.815 58.803025,10.8330861 Z" id="Shape" fill="#FFFFFF"></path>
            <path d="M76.8339515,9.2347619 C76.6402152,8.13692308 75.8814148,7.52342491 74.7351419,7.52342491 C73.1852518,7.52342491 72.3618727,8.68584249 72.3618727,10.784652 C72.3618727,12.9964744 73.2013965,14.1588919 74.7674313,14.1588919 C75.978283,14.1588919 76.6402152,13.5453938 76.8985302,12.1892399 L80.175902,12.3506868 C79.707706,15.2567308 77.7057647,16.8873443 74.6705632,16.8873443 C71.1833104,16.8873443 68.9714881,14.5625092 68.9714881,10.8815201 C68.9714881,7.07137363 71.1510211,4.79497253 74.7997207,4.79497253 C77.7864881,4.79497253 79.8368636,6.50630952 80.0467445,9.2347619 L76.8339515,9.2347619 Z" id="Path" fill="#FFFFFF"></path>
            <g id="Group" transform="translate(81.314103, 1.614469)" fill="#FFFFFF">
                <path d="M4.17071123,10.2195879 C4.38059219,11.7856227 5.31698413,12.6412912 6.77000611,12.6412912 C7.67410867,12.6412912 8.31989621,12.3345421 8.7719475,11.6241758 L12.1946215,11.6241758 C11.5488339,13.8521429 9.41773504,15.2890201 6.67313797,15.2890201 C3.13745116,15.2890201 0.780326618,12.8673168 0.780326618,9.25090659 C0.780326618,5.66678571 3.18588523,3.19664835 6.6408486,3.19664835 C9.06255189,3.19664835 10.9030464,4.4075 11.7587149,6.57088828 C12.1623321,7.57185897 12.323779,8.63740842 12.323779,10.2357326 L4.17071123,10.2357326 L4.17071123,10.2195879 Z M8.85267094,7.84631868 C8.70736874,6.49016484 7.93242369,5.74750916 6.62470391,5.74750916 C5.31698413,5.74750916 4.46131563,6.49016484 4.20300061,7.84631868 L8.85267094,7.84631868 Z" id="Shape"></path>
                <path d="M17.519678,3.48725275 L17.519678,4.60123626 C18.7466743,3.45496337 19.4731853,3.14821429 20.6517476,3.14821429 C23.1380296,3.14821429 24.671775,4.81111722 24.671775,7.52342491 L24.671775,14.9661264 L21.2975351,14.9661264 L21.2975351,8.71813187 C21.2975351,7.55571429 21.2329563,7.103663 20.942352,6.66775641 C20.6517476,6.24799451 20.1512622,6.00582418 19.5700534,6.00582418 C19.0049893,6.00582418 18.4722146,6.21570513 18.1170314,6.61932234 C17.7295589,7.03908425 17.6165461,7.52342491 17.6165461,8.5243956 L17.6165461,14.9661264 L14.2423062,14.9661264 L14.2423062,3.48725275 L17.519678,3.48725275 L17.519678,3.48725275 Z" id="Path"></path>
                <path d="M33.6455311,6.00582418 L31.579011,6.00582418 L31.579011,10.4779029 C31.579011,12.2861081 31.6435897,12.4314103 32.4346795,12.4314103 L33.6455311,12.4314103 L33.6455311,14.9661264 L31.579011,14.9661264 C30.1098443,14.9661264 29.3671886,14.7562454 28.8667033,14.207326 C28.3500733,13.6422619 28.2047711,13.012619 28.2047711,11.2367033 L28.2047711,6.00582418 L26.5903022,6.00582418 L26.5903022,3.63255495 L28.2047711,3.63255495 L28.2047711,-7.10542736e-15 L31.579011,-7.10542736e-15 L31.579011,3.63255495 L33.6455311,3.63255495 L33.6455311,6.00582418 Z" id="Path"></path>
            </g>
            <path d="M11.7712954,16.6774634 L1.66029561,16.6774634 C1.02035891,16.6774634 0.508409557,16.1563721 0.508409557,15.5255773 C0.508409557,14.8856406 1.02950087,14.3736913 1.66029561,14.3736913 L11.7712954,14.3736913 C12.4112321,14.3736913 12.9231815,14.8947826 12.9231815,15.5255773 C12.9231815,16.165514 12.4112321,16.6774634 11.7712954,16.6774634" id="Path" fill="#FF7A00"></path>
            <path d="M18.9660123,12.0699192 L11.1679265,12.0699192 C10.5279898,12.0699192 10.0160405,11.5488278 10.0160405,10.9180331 C10.0160405,10.2780964 10.5371318,9.76614705 11.1679265,9.76614705 L18.9660123,9.76614705 C19.605949,9.76614705 20.1178983,10.2872384 20.1178983,10.9180331 C20.1178983,11.5488278 19.596807,12.0699192 18.9660123,12.0699192" id="Path" fill="#FF7A00"></path>
            <path d="M11.27763,7.45323299 L6.99005409,7.45323299 C6.3501174,7.45323299 5.83816804,6.94128364 5.83816804,6.30134694 C5.83816804,5.66141025 6.35925935,5.14946089 6.99005409,5.14946089 L11.27763,5.14946089 C11.9175667,5.14946089 12.429516,5.6705522 12.429516,6.30134694 C12.429516,6.93214169 11.9175667,7.45323299 11.27763,7.45323299" id="Path" fill="#FF7A00"></path>
            <path d="M13.6636796,2.83654683 L9.65950431,2.83654683 C9.01956761,2.83654683 8.50761826,2.32459747 8.50761826,1.68466078 C8.50761826,1.04472408 9.02870957,0.532774725 9.65950431,0.532774725 L13.6636796,0.532774725 C14.3036163,0.532774725 14.8155657,1.04472408 14.8155657,1.68466078 C14.8155657,2.31545552 14.2944744,2.83654683 13.6636796,2.83654683" id="Path" fill="#FF7A00"></path>
            <path d="M16.3239879,7.45323299 L15.8943161,7.45323299 C15.2543794,7.45323299 14.7424301,6.94128364 14.7424301,6.30134694 C14.7424301,5.66141025 15.2543794,5.14946089 15.8943161,5.14946089 L16.3239879,5.14946089 C16.9639246,5.14946089 17.475874,5.6705522 17.475874,6.30134694 C17.475874,6.93214169 16.9639246,7.45323299 16.3239879,7.45323299" id="Path" fill="#FF7A00"></path>
            <path d="M6.5420984,12.0699192 L4.32974583,12.0699192 C3.68980913,12.0699192 3.17785977,11.5488278 3.17785977,10.9180331 C3.17785977,10.2780964 3.69895108,9.76614705 4.32974583,9.76614705 L6.5420984,9.76614705 C7.1820351,9.76614705 7.69398446,10.2872384 7.69398446,10.9180331 C7.70312641,11.5488278 7.1820351,12.0699192 6.5420984,12.0699192" id="Path" fill="#FF7A00"></path>
            <path d="M21.6537464,16.6774634 L16.3879816,16.6774634 C15.7480449,16.6774634 15.2360955,16.1563721 15.2360955,15.5255773 C15.2360955,14.8856406 15.7571868,14.3736913 16.3879816,14.3736913 L21.6537464,14.3736913 C22.2936831,14.3736913 22.8056324,14.8947826 22.8056324,15.5255773 C22.8147744,16.165514 22.2936831,16.6774634 21.6537464,16.6774634" id="Path" fill="#FF7A00"></path>
            <g id="Rectangle" transform="translate(111.398352, 18.782967)" fill="#FFFFFF">
                <rect x="0.0417399267" y="0.380778388" width="1" height="1"></rect>
            </g>
        </g>
    </g>
</svg>