<?xml version="1.0" encoding="utf-8"?>
<!-- Generator: Adobe Illustrator 23.1.0, SVG Export Plug-In . SVG Version: 6.00 Build 0)  -->
<svg version="1.1" id="katman_1" xmlns="http://www.w3.org/2000/svg" xmlns:xlink="http://www.w3.org/1999/xlink" x="0px" y="0px"
	 viewBox="0 0 300 300" style="enable-background:new 0 0 300 300;" xml:space="preserve">
<style type="text/css">
	.st0{fill-rule:evenodd;clip-rule:evenodd;fill:#C9F0FF;}
	.st1{fill-rule:evenodd;clip-rule:evenodd;fill:#3A6073;}
	.st2{fill-rule:evenodd;clip-rule:evenodd;fill:none;stroke:#C9F0FF;stroke-width:8;stroke-miterlimit:10;}
</style>
<g>
	<polygon class="st0" points="14,162.66 91.28,85.37 107.73,98.8 100.15,109.62 92.09,104.49 35.4,162.44 92.31,220.62 
		100.37,215.49 107.95,226.31 91.5,239.74 24.92,173.15 24.77,173.31 	"/>
	<path class="st1" d="M43.66,160.32c0.97-2.72,3.02-4.6,4.98-6.56c13.47-13.44,26.93-26.9,40.38-40.36
		c2.66-2.66,5.75-3.55,9.31-2.18c5.25,2.04,6.91,8.64,3.31,12.97c-0.42,0.5-0.9,0.96-1.36,1.43
		c-11.67,11.67-23.35,23.34-35.02,35.02c-1.55,1.55-1.55,1.55,0.06,3.15c11.87,11.87,23.74,23.73,35.6,35.6
		c2.32,2.32,3.2,5.07,2.33,8.27c-0.86,3.13-2.95,5.11-6.07,5.86c-3.13,0.75-5.81-0.2-8.08-2.48c-7.63-7.65-15.28-15.28-22.92-22.92
		c-5.93-5.93-11.85-11.88-17.81-17.79c-1.91-1.89-3.79-3.77-4.69-6.38C43.66,162.74,43.66,161.53,43.66,160.32z"/>
</g>
<g>
	<path class="st1" d="M121.77,213.12c-2.8-0.13-5.38-1.63-6.82-4.69c-1.44-3.05-1.01-6,1.09-8.66c0.4-0.51,0.89-0.95,1.35-1.41
		c11.68-11.61,23.34-23.23,35.06-34.8c1.03-1.02,0.99-1.48-0.01-2.47c-11.91-11.76-23.78-23.56-35.63-35.38
		c-3.82-3.81-3.47-9.56,0.7-12.59c3.4-2.47,7.78-2.06,10.95,1.08c9.42,9.34,18.83,18.71,28.24,28.06c4.65,4.62,9.3,9.23,13.94,13.86
		c3.87,3.86,3.88,8.57-0.01,12.43c-14.02,13.94-28.05,27.87-42.07,41.81C126.83,212.1,124.83,213.13,121.77,213.12z"/>
	<polyline class="st2" points="122.91,103.57 175.74,103.57 199.95,48.54 224.17,103.57 277,103.57 229.67,164.11 245.08,210.34 
		192.25,179.52 174.64,168.51 	"/>
</g>
</svg>
