<?xml version="1.0" encoding="utf-8"?>
<!-- Generator: Adobe Illustrator 23.1.0, SVG Export Plug-In . SVG Version: 6.00 Build 0)  -->
<svg version="1.1" id="katman_1" xmlns="http://www.w3.org/2000/svg" xmlns:xlink="http://www.w3.org/1999/xlink" x="0px" y="0px"
	 viewBox="0 0 300 300" style="enable-background:new 0 0 300 300;" xml:space="preserve">
<style type="text/css">
	.st0{fill:#C9F0FF;}
	.st1{fill-rule:evenodd;clip-rule:evenodd;fill:#C9F0FF;}
	.st2{fill-rule:evenodd;clip-rule:evenodd;fill:#3A6073;}
	.st3{fill-rule:evenodd;clip-rule:evenodd;fill:none;stroke:#C9F0FF;stroke-width:5;stroke-miterlimit:10;}
	.st4{fill:#C9F0FF;stroke:#C9F0FF;stroke-width:0.3;stroke-miterlimit:10;}
</style>
<g>
	<path class="st0" d="M45.44,128.39H41.6v-9.03h3.84V128.39z M41.6,132.33h3.84v11.55H41.6V132.33z M56.83,119.36h3.84v9.09v3.84
		v11.59h-3.84v-11.59h-7.65v-3.84h7.65V119.36z"/>
	<path class="st0" d="M88.38,143.88h-4.2l-2.3-5.28l-5.12-12.02l-3.55,8.17l-3.94,9.13h-4.14l10.57-24.49h2.13L88.38,143.88z"/>
	<path class="st0" d="M90.48,129.86c0.2-1.55,0.66-3,1.4-4.35c0.73-1.35,1.66-2.51,2.77-3.5c1.12-0.98,2.39-1.76,3.82-2.33
		c1.43-0.57,2.96-0.85,4.58-0.85c2.58,0,4.92,0.7,7.03,2.1l-2.17,3.25c-0.7-0.5-1.46-0.88-2.28-1.13s-1.68-0.38-2.58-0.38
		c-1.07,0-2.09,0.19-3.05,0.56c-0.96,0.37-1.83,0.88-2.59,1.53c-0.77,0.65-1.41,1.41-1.94,2.28c-0.53,0.88-0.88,1.82-1.05,2.82
		H90.48z M103.05,140.34c1.82,0,3.44-0.49,4.86-1.48l2.17,3.2c-1.05,0.69-2.17,1.22-3.35,1.58c-1.18,0.36-2.41,0.54-3.68,0.54
		c-1.55,0-3.03-0.27-4.43-0.8c-1.4-0.53-2.65-1.26-3.76-2.2c-1.11-0.93-2.04-2.04-2.79-3.32c-0.76-1.28-1.25-2.66-1.49-4.15h3.94
		c0.26,0.96,0.66,1.85,1.2,2.66c0.54,0.81,1.18,1.51,1.92,2.1c0.74,0.59,1.58,1.05,2.49,1.38
		C101.05,140.17,102.02,140.34,103.05,140.34z"/>
	<path class="st0" d="M119.17,130.03h-3.81v-10.57h3.84V130L119.17,130.03z M119.17,134.26l0.03,0.03v9.59h-3.84v-9.62H119.17z
		 M134.56,119.29l-10.34,11.03l10.18,13.52h-4.79l-6.7-8.9l-3.64-4.96l0.1-0.07l9.95-10.64H134.56z"/>
	<path class="st0" d="M161.68,143.88h-4.2l-2.3-5.28l-5.12-12.02l-3.55,8.17l-3.94,9.13h-4.14l10.57-24.49h2.13L161.68,143.88z"/>
	<path class="st0" d="M172.61,127.86h0.03v15.99h-3.84v-20.71h-7.62v-3.84h11.42V127.86z M176.06,119.29h4.2v3.84h-4.2V119.29z"/>
	<path class="st0" d="M189.32,128.39h-3.84v-9.03h3.84V128.39z M185.48,132.33h3.84v11.55h-3.84V132.33z M200.71,119.36h3.84v9.09
		v3.84v11.59h-3.84v-11.59h-7.65v-3.84h7.65V119.36z"/>
	<path class="st0" d="M221.29,119.03c1.73,0,3.35,0.33,4.87,0.98c1.52,0.66,2.85,1.55,3.99,2.69c1.14,1.14,2.04,2.47,2.69,4.01
		c0.66,1.53,0.98,3.16,0.98,4.89c0,1.6-0.28,3.1-0.84,4.51c-0.56,1.41-1.32,2.67-2.28,3.77s-2.11,2.02-3.43,2.76
		c-1.32,0.73-2.75,1.2-4.28,1.4v-3.74c1.01-0.2,1.95-0.56,2.82-1.08c0.87-0.52,1.63-1.18,2.27-1.95c0.63-0.78,1.14-1.65,1.51-2.61
		c0.37-0.96,0.56-1.98,0.56-3.05c0-1.23-0.23-2.37-0.69-3.45c-0.46-1.07-1.09-2.01-1.9-2.82c-0.81-0.81-1.75-1.44-2.82-1.9
		c-1.07-0.46-2.22-0.69-3.45-0.69c-1.23,0-2.38,0.23-3.45,0.69c-1.07,0.46-2.01,1.09-2.82,1.9c-0.81,0.81-1.44,1.75-1.9,2.82
		c-0.46,1.07-0.69,2.22-0.69,3.45c0,1.05,0.18,2.06,0.54,3.02c0.36,0.96,0.85,1.83,1.48,2.59c0.62,0.77,1.36,1.41,2.22,1.94
		c0.85,0.52,1.78,0.9,2.79,1.12v3.74c-1.51-0.22-2.92-0.69-4.23-1.43c-1.31-0.73-2.45-1.65-3.4-2.74c-0.95-1.09-1.7-2.35-2.25-3.76
		c-0.55-1.41-0.82-2.91-0.82-4.48c0-1.73,0.33-3.36,0.99-4.89c0.66-1.53,1.55-2.87,2.69-4.01c1.14-1.14,2.47-2.04,3.99-2.69
		C217.94,119.36,219.56,119.03,221.29,119.03z"/>
	<path class="st0" d="M253.2,136.07v6.21l-11.33-14.28v15.82h-3.84v-24.52h1.87L253.2,136.07z M257.14,135.84h-3.84v-16.54h3.84
		V135.84z"/>
	<path class="st0" d="M51.84,167.25h0.03v15.99h-3.84v-20.71h-7.62v-3.84h11.42V167.25z M55.29,158.69h4.2v3.84h-4.2V158.69z"/>
	<path class="st0" d="M122.81,166.42c0,0.94-0.16,1.84-0.49,2.68c-0.33,0.84-0.78,1.6-1.36,2.27c-0.58,0.67-1.27,1.22-2.06,1.66
		c-0.79,0.44-1.64,0.72-2.57,0.86l6.45,9.32h-4.6l-6.4-9.22l-4.01-0.03v9.32h-3.84v-19.33h3.84v6.2h7.46c0.52,0,1.01-0.1,1.46-0.29
		c0.45-0.2,0.84-0.46,1.18-0.8c0.34-0.34,0.61-0.73,0.8-1.18c0.2-0.45,0.3-0.93,0.3-1.45s-0.1-1.02-0.3-1.49
		c-0.2-0.47-0.46-0.87-0.8-1.21c-0.34-0.34-0.74-0.61-1.2-0.82c-0.46-0.21-0.94-0.31-1.44-0.31l-5.58-0.03v-3.81h5.58
		c1.05,0,2.03,0.2,2.94,0.61c0.91,0.41,1.71,0.95,2.41,1.64c0.7,0.69,1.24,1.5,1.64,2.43C122.61,164.37,122.81,165.37,122.81,166.42
		z"/>
	<path class="st0" d="M139.98,169.42h-3.81v-10.57h3.84v10.54L139.98,169.42z M139.98,173.66l0.03,0.03v9.59h-3.84v-9.62H139.98z
		 M155.38,158.69l-10.34,11.03l10.18,13.52h-4.79l-6.7-8.9l-3.64-4.96l0.1-0.07l9.95-10.64H155.38z"/>
	<path class="st0" d="M172.51,183.27h-3.84v-24.52h3.84V183.27z"/>
	<path class="st0" d="M194.6,167.25h4.5l-2.56,4.24v11.72h-3.84v-11.72l-7.65-12.8h4.47l5.09,8.5V167.25z M201.46,163.35h-4.5
		l2.82-4.66h4.5L201.46,163.35z"/>
	<path class="st0" d="M216.86,158.79h15.89v3.78h-12.11v5.42h-3.77V158.79z M220.64,171.85v7.62h12.11v3.77h-15.89v-11.39H220.64z
		 M231.17,168.08v3.77h-6.6v-3.77H231.17z"/>
</g>
<g>
	<polygon class="st1" points="6,132.22 32.56,105.66 38.21,110.28 35.6,114 32.83,112.23 13.35,132.15 32.91,152.14 35.68,150.38 
		38.29,154.1 32.63,158.71 9.75,135.83 9.7,135.88 	"/>
	<path class="st2" d="M16.19,131.42c0.33-0.93,1.04-1.58,1.71-2.26c4.63-4.62,9.25-9.24,13.88-13.87c0.91-0.91,1.98-1.22,3.2-0.75
		c1.8,0.7,2.38,2.97,1.14,4.46c-0.14,0.17-0.31,0.33-0.47,0.49c-4.01,4.01-8.02,8.02-12.04,12.03c-0.53,0.53-0.53,0.53,0.02,1.08
		c4.08,4.08,8.16,8.15,12.23,12.23c0.8,0.8,1.1,1.74,0.8,2.84c-0.3,1.07-1.01,1.76-2.08,2.01c-1.07,0.26-2-0.07-2.78-0.85
		c-2.62-2.63-5.25-5.25-7.88-7.87c-2.04-2.04-4.07-4.08-6.12-6.11c-0.66-0.65-1.3-1.29-1.61-2.19
		C16.19,132.25,16.19,131.83,16.19,131.42z"/>
</g>
<g>
	<path class="st2" d="M240.57,186.7c-0.87-0.04-1.67-0.51-2.12-1.45c-0.45-0.95-0.31-1.86,0.34-2.69c0.12-0.16,0.27-0.29,0.42-0.44
		c3.62-3.6,7.24-7.21,10.88-10.8c0.32-0.32,0.31-0.46,0-0.77c-3.7-3.65-7.38-7.31-11.06-10.98c-1.19-1.18-1.08-2.97,0.22-3.91
		c1.06-0.77,2.41-0.64,3.4,0.33c2.92,2.9,5.84,5.8,8.76,8.71c1.44,1.43,2.89,2.86,4.33,4.3c1.2,1.2,1.2,2.66,0,3.86
		c-4.35,4.33-8.7,8.65-13.05,12.97C242.14,186.39,241.52,186.71,240.57,186.7z"/>
	<polyline class="st3" points="240.92,152.71 257.31,152.71 264.83,135.64 272.34,152.71 288.73,152.71 274.05,171.5 278.83,185.84 
		262.44,176.28 256.97,172.86 	"/>
</g>
<g>
	<g>
		<g>
			<path class="st4" d="M92.09,163.02c-0.06-0.62-0.57-1.09-1.19-1.09h-3.08v-0.45h0.06c0.44,0,0.8-0.36,0.8-0.8v-1.11
				c0-0.44-0.36-0.8-0.8-0.8H78.8c-0.2,0-0.36,0.16-0.36,0.36s0.16,0.36,0.36,0.36h9.08c0.05,0,0.08,0.04,0.08,0.08v1.11
				c0,0.05-0.04,0.08-0.08,0.08H74.5c-0.05,0-0.08-0.04-0.08-0.08v-1.11c0-0.05,0.04-0.08,0.08-0.08h2.62c0.2,0,0.36-0.16,0.36-0.36
				s-0.16-0.36-0.36-0.36H74.5c-0.44,0-0.8,0.36-0.8,0.8v1.11c0,0.44,0.36,0.8,0.8,0.8h0.06v0.45h-3.08c-0.62,0-1.13,0.47-1.19,1.09
				c-0.01,0.08-0.17,2.01,0.62,4.14c0.72,1.95,2.38,4.45,6.18,5.43c0.61,0.48,1.31,0.86,2.07,1.11l0.18,0.3
				c0.34,0.56,0.52,1.23,0.52,1.92c0,0.42-0.07,0.84-0.2,1.23l-0.25,0.74h-0.83c-0.85,0-1.55,0.69-1.55,1.55v0.75h-1.3
				c-0.37,0-0.67,0.3-0.67,0.67v1.68c0,0.37,0.3,0.67,0.67,0.67h10.93c0.37,0,0.67-0.3,0.67-0.67v-1.68c0-0.37-0.3-0.67-0.67-0.67
				h-1.3v-0.75c0-0.85-0.69-1.55-1.55-1.55h-0.83l-0.25-0.74c-0.13-0.39-0.2-0.81-0.2-1.23c0-0.69,0.18-1.36,0.52-1.92l0.18-0.3
				c0.76-0.24,1.45-0.62,2.07-1.11c3.8-0.98,5.45-3.47,6.18-5.43C92.25,165.03,92.09,163.11,92.09,163.02L92.09,163.02z
				 M74.69,168.71c-0.67-0.62-1.18-1.4-1.53-2.32c-0.24-0.64-0.4-1.34-0.47-2.07h1.87v3.07C74.56,167.85,74.61,168.29,74.69,168.71z
				 M71.58,166.92c-0.73-1.99-0.59-3.76-0.58-3.83c0.02-0.25,0.23-0.43,0.47-0.43h3.08v0.95h-1.9c-0.19,0-0.38,0.08-0.51,0.22
				c-0.13,0.14-0.19,0.34-0.18,0.53c0.08,0.81,0.25,1.58,0.52,2.29c0.53,1.4,1.39,2.5,2.57,3.28c0.23,0.56,0.54,1.08,0.9,1.55
				C73.38,170.4,72.16,168.47,71.58,166.92L71.58,166.92z M86.61,180.9v1.58H75.77v-1.58H86.61z M83.8,178.6
				c0.46,0,0.83,0.37,0.83,0.83v0.75h-6.9v-0.75c0-0.46,0.37-0.83,0.83-0.83H83.8z M82.05,177.38l0.17,0.51h-2.06l0.17-0.51
				c0.16-0.47,0.24-0.96,0.24-1.46c0-0.7-0.16-1.38-0.46-1.99c0.35,0.06,0.71,0.09,1.08,0.09c0.37,0,0.73-0.03,1.08-0.09
				c-0.3,0.6-0.46,1.28-0.46,1.99C81.81,176.42,81.89,176.91,82.05,177.38L82.05,177.38z M81.19,173.3c-3.26,0-5.91-2.65-5.91-5.91
				v-5.91H87.1v5.91C87.1,170.65,84.45,173.3,81.19,173.3z M90.79,166.92c-0.57,1.55-1.79,3.48-4.39,4.55
				c0.37-0.47,0.67-0.99,0.91-1.55c1.01-0.67,1.79-1.57,2.32-2.7c0.08-0.18,0.01-0.39-0.17-0.48c-0.18-0.08-0.39-0.01-0.48,0.17
				c-0.33,0.7-0.77,1.3-1.31,1.81c0.09-0.43,0.13-0.87,0.13-1.32v-3.07h1.87c-0.04,0.37-0.09,0.73-0.18,1.09
				c-0.04,0.19,0.08,0.38,0.27,0.43c0.19,0.04,0.38-0.08,0.43-0.27c0.09-0.39,0.16-0.8,0.19-1.21c0.02-0.19-0.05-0.39-0.18-0.53
				c-0.13-0.14-0.32-0.22-0.51-0.22h-1.9v-0.95h3.08c0.25,0,0.45,0.19,0.47,0.43C91.38,163.16,91.53,164.93,90.79,166.92
				L90.79,166.92z"/>
			<path class="st4" d="M83.54,165.73l-1.03-0.15c-0.04-0.01-0.08-0.03-0.1-0.08l-0.46-0.93c-0.14-0.29-0.44-0.48-0.76-0.48
				s-0.62,0.18-0.76,0.48l-0.46,0.93c-0.02,0.04-0.06,0.07-0.1,0.08l-1.03,0.15c-0.32,0.05-0.59,0.27-0.69,0.58
				c-0.1,0.31-0.02,0.65,0.22,0.87l0.74,0.72c0.03,0.03,0.05,0.08,0.04,0.12l-0.18,1.02c-0.06,0.32,0.07,0.64,0.34,0.83
				c0.26,0.19,0.61,0.22,0.9,0.06l0.92-0.48c0.04-0.02,0.09-0.02,0.13,0l0.92,0.48c0.13,0.07,0.26,0.1,0.4,0.1
				c0.18,0,0.35-0.06,0.5-0.16c0.26-0.19,0.39-0.51,0.34-0.83l-0.18-1.02c-0.01-0.04,0.01-0.09,0.04-0.12l0.74-0.72
				c0.23-0.23,0.32-0.56,0.22-0.87C84.13,165.99,83.86,165.77,83.54,165.73L83.54,165.73z M83.51,166.67l-0.74,0.72
				c-0.2,0.2-0.29,0.48-0.25,0.75l0.18,1.02c0.01,0.07-0.03,0.12-0.05,0.13c-0.03,0.02-0.08,0.05-0.14,0.01l-0.92-0.48
				c-0.12-0.07-0.26-0.1-0.4-0.1c-0.14,0-0.27,0.03-0.4,0.1l-0.92,0.48c-0.07,0.03-0.12,0.01-0.14-0.01
				c-0.03-0.02-0.07-0.06-0.05-0.13l0.18-1.02c0.05-0.28-0.04-0.56-0.25-0.75l-0.74-0.72c-0.05-0.05-0.04-0.11-0.03-0.14
				c0.01-0.03,0.04-0.08,0.11-0.09l1.03-0.15c0.28-0.04,0.52-0.21,0.64-0.47l0.46-0.93c0.03-0.07,0.09-0.08,0.12-0.08
				s0.09,0.01,0.12,0.08l0.46,0.93c0.12,0.25,0.36,0.43,0.64,0.47l1.03,0.15c0.07,0.01,0.1,0.06,0.11,0.09
				C83.56,166.56,83.57,166.62,83.51,166.67z"/>
		</g>
	</g>
</g>
</svg>
